<?xml version="1.0" encoding="UTF-8" standalone="no"?>
<!-- Created with Inkscape (http://www.inkscape.org/) -->

<svg
   xmlns:osb="http://www.openswatchbook.org/uri/2009/osb"
   xmlns:dc="http://purl.org/dc/elements/1.1/"
   xmlns:cc="http://creativecommons.org/ns#"
   xmlns:rdf="http://www.w3.org/1999/02/22-rdf-syntax-ns#"
   xmlns:svg="http://www.w3.org/2000/svg"
   xmlns="http://www.w3.org/2000/svg"
   xmlns:sodipodi="http://sodipodi.sourceforge.net/DTD/sodipodi-0.dtd"
   xmlns:inkscape="http://www.inkscape.org/namespaces/inkscape"
   width="65.861534mm"
   height="43.44894mm"
   viewBox="0 0 65.861534 43.44894"
   version="1.1"
   id="svg8"
   inkscape:version="0.92.2 (5c3e80d, 2017-08-06)"
   sodipodi:docname="logo-white.svg">
  <defs
     id="defs2">
    <linearGradient
       id="linearGradient4534"
       osb:paint="solid">
      <stop
         style="stop-color:#daa520;stop-opacity:1;"
         offset="0"
         id="stop4532" />
    </linearGradient>
  </defs>
  <sodipodi:namedview
     id="base"
     pagecolor="#ffffff"
     bordercolor="#666666"
     borderopacity="1.0"
     inkscape:pageopacity="0.0"
     inkscape:pageshadow="2"
     inkscape:zoom="3.959798"
     inkscape:cx="84.674651"
     inkscape:cy="81.178713"
     inkscape:document-units="mm"
     inkscape:current-layer="layer1"
     showgrid="false"
     inkscape:window-width="1920"
     inkscape:window-height="1027"
     inkscape:window-x="1912"
     inkscape:window-y="-8"
     inkscape:window-maximized="1"
     fit-margin-top="0"
     fit-margin-left="0"
     fit-margin-right="0"
     fit-margin-bottom="0" />
  <metadata
     id="metadata5">
    <rdf:RDF>
      <cc:Work
         rdf:about="">
        <dc:format>image/svg+xml</dc:format>
        <dc:type
           rdf:resource="http://purl.org/dc/dcmitype/StillImage" />
        <dc:title />
      </cc:Work>
    </rdf:RDF>
  </metadata>
  <g
     inkscape:label="Layer 1"
     inkscape:groupmode="layer"
     id="layer1"
     transform="translate(-85.949963,-35.439805)">
    <flowRoot
       xml:space="preserve"
       id="flowRoot4538"
       style="font-style:normal;font-weight:normal;font-size:40px;line-height:1.25;font-family:sans-serif;letter-spacing:0px;word-spacing:0px;fill:#000000;fill-opacity:1;stroke:none"
       transform="scale(0.26458333)"><flowRegion
         id="flowRegion4540"><rect
           id="rect4542"
           width="147.48227"
           height="57.07362"
           x="338.90619"
           y="196.20979" /></flowRegion><flowPara
         id="flowPara4544" /></flowRoot>    <text
       xml:space="preserve"
       style="font-style:normal;font-weight:normal;font-size:10.58333302px;line-height:1.25;font-family:sans-serif;letter-spacing:0px;word-spacing:0px;fill:#000000;fill-opacity:1;stroke:none;stroke-width:0.26458332"
       x="112.78773"
       y="58.595577"
       id="text4548"><tspan
         sodipodi:role="line"
         id="tspan4546"
         x="112.78773"
         y="67.959343"
         style="stroke-width:0.26458332" /></text>
    <flowRoot
       xml:space="preserve"
       id="flowRoot4550"
       style="font-style:normal;font-weight:normal;font-size:40px;line-height:1.25;font-family:sans-serif;letter-spacing:0px;word-spacing:0px;fill:#000000;fill-opacity:1;stroke:none"><flowRegion
         id="flowRegion4552"><rect
           id="rect4554"
           width="96.469566"
           height="50.507626"
           x="416.18286"
           y="198.2301" /></flowRegion><flowPara
         id="flowPara4556" /></flowRoot>    <path
       style="fill:none;fill-opacity:1;stroke:#ffffff;stroke-width:8.46992137;stroke-linecap:round;stroke-linejoin:round;stroke-miterlimit:4;stroke-dasharray:none;stroke-opacity:1;paint-order:normal"
       d="m 556.94238,206.80418 -2e-5,87.12305 H 329.08522 v -125.00001 0 h 135.91506"
       id="path4605"
       transform="scale(0.26458333)"
       inkscape:connector-curvature="0" />
    <g
       aria-label="&lt;API&gt;"
       transform="matrix(0.26458333,0,0,0.26458333,0,-3.8754082)"
       style="font-style:normal;font-variant:normal;font-weight:normal;font-stretch:normal;font-size:64px;line-height:1.25;font-family:Consolas;-inkscape-font-specification:'Consolas, Normal';font-variant-ligatures:normal;font-variant-position:normal;font-variant-caps:normal;font-variant-numeric:normal;font-feature-settings:normal;text-align:center;letter-spacing:0px;word-spacing:0px;writing-mode:lr-tb;text-anchor:middle;fill:#ffffff;fill-opacity:1;stroke:none;stroke-width:8.46992137;stroke-miterlimit:4;stroke-dasharray:none;stroke-opacity:1"
       id="flowRoot4558">
      <path
         d="m 383.07031,261.42187 -3.40625,3.4375 -21,-17.53125 21,-17.53125 3.40625,3.46875 -17.03125,14 z"
         style="stroke-width:8.46992137;stroke-miterlimit:4;stroke-dasharray:none;stroke:none;stroke-opacity:1;fill:#ffffff;fill-opacity:1"
         id="path837" />
      <path
         d="m 424.50781,264.35937 h -6.0625 l -2.84375,-8.90625 h -17 l -2.875,8.90625 h -5.78125 l 13.5625,-40.84375 h 7.625 z m -10.5,-13.875 -6.90625,-21.84375 -6.90625,21.84375 z"
         style="stroke-width:8.46992137;stroke-miterlimit:4;stroke-dasharray:none;stroke:none;stroke-opacity:1;fill:#ffffff;fill-opacity:1"
         id="path839" />
      <path
         d="m 456.63281,236.01562 q 0,2.5 -0.9375,4.96875 -0.9375,2.4375 -2.90625,4.375 -1.96875,1.9375 -5.03125,3.15625 -3.0625,1.1875 -7.3125,1.1875 h -5.0625 v 14.65625 h -5.5625 v -40.84375 h 11.5 q 3.03125,0 5.8125,0.6875 2.78125,0.65625 4.875,2.15625 2.125,1.5 3.375,3.875 1.25,2.375 1.25,5.78125 z m -5.78125,0.25 q 0,-3.9375 -2.59375,-6.03125 -2.5625,-2.09375 -7.1875,-2.09375 h -5.6875 v 16.8125 h 5.1875 q 4.9375,0 7.59375,-2.15625 2.6875,-2.15625 2.6875,-6.53125 z"
         style="stroke-width:8.46992137;stroke-miterlimit:4;stroke-dasharray:none;stroke:none;stroke-opacity:1;fill:#ffffff;fill-opacity:1"
         id="path841" />
      <path
         d="m 474.91406,228.20312 h -9.40625 v -4.6875 h 24.4375 v 4.6875 h -9.40625 v 31.40625 h 9.40625 v 4.75 h -24.4375 v -4.75 h 9.40625 z"
         style="stroke-width:8.46992137;stroke-miterlimit:4;stroke-dasharray:none;stroke:none;stroke-opacity:1;fill:#ffffff;fill-opacity:1"
         id="path843" />
      <path
         d="m 501.91406,233.26562 3.375,-3.46875 21,17.53125 -21,17.53125 -3.375,-3.4375 17.03125,-14.03125 z"
         style="stroke-width:8.46992137;stroke-miterlimit:4;stroke-dasharray:none;stroke:none;stroke-opacity:1;fill:#ffffff;fill-opacity:1"
         id="path845" />
    </g>
  </g>
  <g
     inkscape:groupmode="layer"
     id="layer2"
     inkscape:label="Layer 2"
     style="display:inline"
     transform="translate(-85.949963,-35.439805)">
    <g
       id="g4523"
       transform="matrix(1.4486618,0,0,1.4486618,120.47694,28.199834)"
       style="stroke-width:0.44247733;stroke-miterlimit:4;stroke-dasharray:none;stroke:none;stroke-opacity:1;fill:#ffffff;fill-opacity:1;stroke-linejoin:round">
      <path
         id="path4506"
         d="M 12.13,12 H 12 11.87 L 7,10.63 V 14 c 0,1.1 2.24,2 5,2 2.76,0 5,-0.9 5,-2 v -3.37 z"
         inkscape:connector-curvature="0"
         style="stroke-width:0.44247733;stroke-miterlimit:4;stroke-dasharray:none;stroke:none;stroke-opacity:1;fill:#ffffff;fill-opacity:1;stroke-linejoin:round" />
      <path
         id="path4508"
         d="m 21.13,7.52 -9,-2.5 a 0.39,0.39 0 0 0 -0.26,0 l -9,2.5 a 0.5,0.5 0 0 0 0,1 l 9,2.5 L 12,11 h 0.13 l 9,-2.5 a 0.5,0.5 0 0 0 0,-1 z"
         inkscape:connector-curvature="0"
         style="stroke-width:0.44247733;stroke-miterlimit:4;stroke-dasharray:none;stroke:none;stroke-opacity:1;fill:#ffffff;fill-opacity:1;stroke-linejoin:round" />
      <path
         id="path4510"
         d="M 19.5,12.5 A 1,1 0 0 0 19,11.65 V 8 h -1 v 3.65 a 1,1 0 0 0 -0.5,0.85 1,1 0 0 0 0.45,0.81 L 17.5,16 c 0,0.37 0.45,0.67 1,0.67 0.55,0 1,-0.3 1,-0.67 L 19.05,13.31 A 1,1 0 0 0 19.5,12.5 Z"
         inkscape:connector-curvature="0"
         style="stroke-width:0.44247733;stroke-miterlimit:4;stroke-dasharray:none;stroke:none;stroke-opacity:1;fill:#ffffff;fill-opacity:1;stroke-linejoin:round" />
    </g>
  </g>
</svg>
